HIERARCHY
ROOT pelvis
{
	OFFSET 0.000000 0.000000 0.000000
	CHANNELS 6 Xposition Yposition Zposition Zrotation Xrotation Yrotation
	JOINT lfemur
	{
		OFFSET 11.446000 0.000000 0.000000
		CHANNELS 3 Zrotation Xrotation Yrotation
		JOINT ltibia
		{
			OFFSET 0.000000 -42.030400 0.000000
			CHANNELS 3 Zrotation Xrotation Yrotation
			JOINT lfoot
			{
				OFFSET 0.000000 -39.930200 0.000000
				CHANNELS 3 Zrotation Xrotation Yrotation
				JOINT ltoes
				{
					OFFSET 0.000000 0.000000 11.775800
					CHANNELS 3 Zrotation Xrotation Yrotation
					End Site
					{
					    OFFSET 0.000000 0.000000 5.000000
					}
				}
			}
		}
	}
	JOINT rfemur
	{
		OFFSET -11.446000 0.000000 0.000000
		CHANNELS 3 Zrotation Xrotation Yrotation
		JOINT rtibia
		{
			OFFSET 0.000000 -42.030400 0.000000
			CHANNELS 3 Zrotation Xrotation Yrotation
			JOINT rfoot
			{
				OFFSET 0.000000 -39.930200 0.000000
				CHANNELS 3 Zrotation Xrotation Yrotation
				JOINT rtoes
				{
					OFFSET 0.000000 0.000000 11.775800
					CHANNELS 3 Zrotation Xrotation Yrotation
					End Site
					{
					    OFFSET 0.000000 0.000000 5.000000
					}
				}
			}
		}
	}
	JOINT thorax
	{
		OFFSET 0.000000 11.255600 -5.000000
		CHANNELS 3 Zrotation Xrotation Yrotation
		JOINT head
		{
			OFFSET 0.000000 43.799300 0.000000
			CHANNELS 3 Zrotation Xrotation Yrotation
			End Site
			{
			    OFFSET 0.000000 5.000000 0.000000
			}
		}
		JOINT lclavicle
		{
			OFFSET 0.000000 39.863000 0.000000
			CHANNELS 3 Zrotation Xrotation Yrotation
			JOINT lhumerus
			{
				OFFSET 17.380600 4.958300 0.000000
				CHANNELS 3 Zrotation Xrotation Yrotation
				JOINT lradius
				{
					OFFSET 0.000000 -27.561300 0.000000
					CHANNELS 3 Zrotation Xrotation Yrotation
					JOINT lhand
					{
						OFFSET 0.000000 -26.933000 0.000000
						CHANNELS 3 Zrotation Xrotation Yrotation
						End Site
						{
						    OFFSET 0.000000 -5.000000 0.000000
						}
					}
				}
			}
		}
		JOINT rclavicle
		{
			OFFSET 0.000000 39.863000 0.000000
			CHANNELS 3 Zrotation Xrotation Yrotation
			JOINT rhumerus
			{
				OFFSET -17.380600 4.958300 0.000000
				CHANNELS 3 Zrotation Xrotation Yrotation
				JOINT rradius
				{
					OFFSET 0.000000 -27.561300 0.000000
					CHANNELS 3 Zrotation Xrotation Yrotation
					JOINT rhand
					{
						OFFSET 0.000000 -26.933000 0.000000
						CHANNELS 3 Zrotation Xrotation Yrotation
						End Site
						{
						    OFFSET 0.000000 -5.000000 0.000000
						}
					}
				}
			}
		}
	}
}
MOTION
Frames:	16
Frame Time:	0.0333333
209.887 86.586 -1.18857 -2.63604 -1.26718 46.1877 -0.999695 -8.39608 3.76968 0.364896 21.5526 42.8984 -6.64593 -3.18915 -0.959179 -6.06289e-016 -5 -3.99088e-016 4.33441 -11.0718 1.31493 2.12885 14.2275 -27.8508 -1.72059 3.79862 0.104807 1.19307e-016 -5 -3.1927e-015 -8.98447 4.22442 -2.17192 16.9759 22.9691 -39.8124 2.78299e-015 3.18055e-015 -3.18055e-015 23.7178 -26.4975 58.7975 1.52526 -0.0412046 -94.4299 5.55195 -8.3898 -9.26774 2.78299e-015 3.18055e-015 -3.18055e-015 -7.91673 -5.00435 -34.481 12.3779 -3.45013 49.6234 0.703324 -3.21009 9.98702 
210.596 86.4883 -1.02849 -2.43074 -1.2238 39.7598 -1.31722 -7.11506 4.58941 -0.379416 21.5584 48.7515 -7.36892 -3.78373 -1.02227 6.45555e-015 -5 -1.19726e-015 3.99287 -11.6139 0.166666 3.1372 15.7779 -36.354 -3.0235 3.56902 0.269404 -1.29219e-016 -5 7.98176e-016 -8.8541 3.68441 -2.09987 16.153 23.0904 -40.1686 -1.98785e-015 2.38542e-015 3.18055e-015 25.9482 -25.7962 60.3335 2.30021 -0.131675 -94.958 5.54277 -8.22846 -9.27396 -1.98785e-015 2.38542e-015 3.18055e-015 -8.47115 -4.62194 -34.2082 12.3191 -3.08997 49.8692 0.110725 -3.1812 9.94289 
211.286 86.2274 -0.643817 -2.07223 -1.34762 33.4623 -1.22813 -5.98499 5.96566 -1.87859 22.4275 54.2666 -8.31909 -4.84684 -1.14471 8.50305e-015 -5 -2.79362e-015 4.03336 -12.3718 -0.34702 3.30349 18.6415 -41.5115 -2.11192 2.08064 0.309303 -4.67135e-016 -5 -7.98176e-016 -8.76222 3.29336 -2.02392 15.4527 22.958 -40.0491 9.93923e-016 -1.19271e-015 6.36111e-015 28.2063 -24.551 62.0804 3.22223 0.0309429 -95.6559 5.63811 -8.03099 -9.27691 9.93923e-016 -1.19271e-015 6.36111e-015 -9.08873 -4.30876 -34.2596 12.1939 -2.61337 50.5694 -0.369906 -3.30362 9.90737 
211.8 85.8194 -0.010925 -1.80057 -1.9257 27.3568 -0.0319802 -4.60539 9.63689 -4.02292 23.7933 56.4383 -9.70521 -6.53104 -1.24152 1.29509e-014 -5 -8.77994e-015 4.6064 -12.5295 -0.0537215 2.79996 21.1791 -40.7143 -0.430412 0.968871 0.280772 6.56007e-016 -5 -1.59635e-015 -8.58663 3.34272 -1.97551 14.9582 22.4664 -39.2749 1.39149e-015 3.97569e-016 -0 30.3836 -22.8335 63.8473 4.04171 -0.0762311 -96.2962 5.63617 -7.77941 -9.28824 1.39149e-015 3.97569e-016 -0 -9.56371 -4.11896 -34.461 12.0774 -2.42021 51.2463 -0.413846 -3.30336 9.90435 
212.089 85.3425 0.785312 -1.80241 -2.93491 21.2422 2.43153 -3.4822 22.3969 -3.49348 27.8232 48.706 -8.7267 -9.48241 -1.02304 7.08182e-016 -5 -9.9772e-016 5.59337 -12.4098 0.398934 2.01153 23.7894 -34.949 0.229103 -0.265326 0.228839 -3.97569e-016 -5 -0 -8.3604 3.84951 -1.87611 14.6643 21.8156 -38.1047 7.95139e-016 7.95139e-016 -0 32.4609 -20.7846 65.7151 4.78136 -0.119397 -96.6812 5.82283 -7.50399 -9.28163 7.95139e-016 7.95139e-016 -0 -9.82307 -4.24999 -34.9091 11.8342 -2.2078 52.0631 -0.161633 -3.24775 9.92322 
212.26 84.8587 1.57418 -2.02585 -4.03295 15.154 6.04216 -4.2751 38.6353 2.87352 37.327 35.1469 -9.09411 -10.6296 -1.22291 1.70332e-015 -5 1.29704e-015 6.63136 -12.4615 0.416193 1.03455 26.6679 -27.8764 -0.422545 -1.64139 0.191811 -6.75832e-016 -5 -3.1927e-015 -8.28954 4.60924 -1.7714 14.7327 21.3135 -37.3427 -1.2424e-015 1.98785e-016 -0 33.902 -18.4856 67.5584 5.65357 -0.150777 -96.4816 5.98419 -7.2637 -9.27783 -1.2424e-015 1.98785e-016 -0 -9.79014 -4.71795 -35.7481 11.3318 -1.77539 53.0999 -0.0424397 -3.31162 9.93296 
212.496 84.3829 2.23085 -2.2903 -4.94735 9.3534 9.26233 -6.48993 38.1355 2.35425 48.1392 38.3069 -4.65748 -10.4329 -0.857682 6.46546e-015 -5 1.19726e-015 7.45527 -12.7013 0.492749 -0.0292787 29.5528 -22.2188 -1.22006 -2.97167 0.154978 -9.3427e-016 -5 -1.59635e-015 -8.33276 5.4658 -1.80346 15.2874 20.9808 -37.413 8.69683e-017 1.98785e-016 -0 34.3934 -16.3116 69.3481 6.79403 -0.107911 -95.8637 5.85086 -7.05059 -9.30411 8.69683e-017 1.98785e-016 -0 -9.50799 -5.11719 -36.58 10.8934 -1.65527 53.3954 -0.340666 -3.44699 9.90954 
212.924 83.9937 2.74648 -2.51291 -5.64277 3.67138 11.2247 -8.59659 35.9996 2.49417 56.7725 33.9583 0.587529 -10.0647 -0.333756 -2.78262e-016 -5 -3.1927e-015 8.03507 -12.8271 1.69399 -0.866584 31.8005 -18.0208 -1.49162 -3.88099 0.100738 -6.56007e-016 -5 1.59635e-015 -8.27498 6.26444 -1.91636 16.0781 20.6998 -37.799 9.3918e-016 -2.48481e-017 -0 33.8204 -14.5074 71.127 8.01188 -0.139893 -95.4652 5.67984 -6.77796 -9.33955 9.3918e-016 -2.48481e-017 -0 -9.37613 -5.15202 -36.7819 10.9638 -2.1386 52.2848 -0.822398 -3.53708 9.87158 
213.593 83.8285 3.22762 -2.74038 -6.09985 -2.46857 11.2571 -9.74004 32.0513 2.14464 60.7569 21.2293 2.40202 -10.5051 -0.0773926 -8.15035e-015 -5 1.59635e-014 8.46789 -12.6621 4.51405 -1.31178 32.9484 -14.4902 -1.52942 -4.0577 0.0519306 3.97569e-016 -5 -0 -8.04934 6.6868 -1.90546 16.5168 20.6471 -37.8443 3.35449e-016 -1.98785e-016 2.38542e-015 32.1966 -12.9496 72.7593 8.8889 -0.0720681 -95.4568 6.1624 -6.35453 -9.30891 3.35449e-016 -1.98785e-016 2.38542e-015 -9.79942 -5.09836 -36.1322 11.307 -2.65216 50.6622 -1.03731 -3.53395 9.85505 
214.501 83.8735 3.73976 -3.13515 -6.17614 -9.19248 9.73056 -10.2907 27.0405 1.22193 59.7064 7.08049 1.37774 -9.63511 -0.00559921 -0 -5 -0 8.81255 -12.3595 8.01894 -1.57199 32.9958 -10.9708 -1.42735 -3.55753 0.0362303 7.95139e-016 -5 -0 -7.39954 6.60069 -1.8149 16.2451 20.9904 -37.4577 -1.04362e-015 3.97569e-016 -3.18055e-015 29.4397 -11.4497 73.8285 9.17758 -0.0576012 -95.1604 6.74986 -5.99037 -9.26878 -1.04362e-015 3.97569e-016 -3.18055e-015 -10.633 -5.39653 -35.3653 11.319 -2.51789 50.1767 -1.06338 -3.52208 9.8538 
215.571 84.0519 4.27202 -3.55728 -5.84162 -16.0929 6.91983 -11.0243 20.5977 0.619522 56.1047 1.35535 -0.0336322 -8.61416 -0.00347494 -7.25573e-016 -5 7.98176e-016 8.79066 -12.0479 10.7102 -1.90289 31.9872 -6.52564 -0.860096 -2.51054 0.0443778 -1.19307e-016 -5 3.1927e-015 -6.49468 6.30687 -1.79491 15.3822 21.3104 -36.6895 1.98785e-016 -3.97569e-016 -0 25.7851 -10.2576 74.0534 8.95986 -0.128048 -94.4619 6.33107 -6.174 -9.30581 1.98785e-016 -3.97569e-016 -0 -11.5464 -6.01979 -35.0311 10.9871 -2.02018 50.9076 -1.30773 -3.7277 9.83256 
216.705 84.323 4.83484 -3.75214 -5.32634 -23.0429 3.33923 -11.6954 12.579 0.76277 51.9834 5.21706 0.312451 -9.45836 0.0503111 3.97569e-016 -5 -0 8.42133 -11.9187 12.4674 -2.38141 30.5521 -0.993363 -0.514917 -1.22483 -0.051568 -1.39131e-016 -5 -1.59635e-015 -5.8704 6.11246 -1.76345 14.4482 21.0386 -35.4622 -3.97569e-016 7.95139e-016 -0 21.9575 -9.6712 73.2912 8.24342 -0.114413 -94.3885 5.3181 -7.03632 -9.36513 -3.97569e-016 7.95139e-016 -0 -12.4383 -6.58594 -34.6506 10.9089 -2.02155 51.4183 -1.56478 -4.08874 9.80806 
217.804 84.5648 5.46826 -3.79753 -4.81779 -30.2415 -0.153877 -11.7356 3.93327 1.13178 47.1419 11.8978 3.0844 -10.7262 0.355742 -7.95139e-016 -5 -0 8.18679 -12.1378 14.306 -2.99263 29.5115 4.62713 -0.590136 -0.0760024 -0.255238 5.36701e-016 -5 1.59635e-015 -5.61378 6.0222 -1.57887 13.8371 20.1808 -33.9516 -9.93923e-016 -3.97569e-016 -3.18055e-015 18.5927 -9.66646 71.3424 6.68363 -0.150408 -95.3644 5.10575 -7.99207 -9.34318 -9.93923e-016 -3.97569e-016 -3.18055e-015 -13.2967 -6.98093 -33.733 11.3775 -2.71872 51.0037 -1.2282 -4.17094 9.83372 
218.845 84.6991 6.14169 -3.88566 -4.26915 -37.4685 -2.70396 -11.3686 -4.99301 1.25087 42.0041 13.9367 5.33348 -10.7323 0.611861 -3.2202e-015 -5 -9.57811e-015 8.17454 -12.5631 16.3148 -3.4673 28.7286 9.64327 -0.46438 0.933881 -0.476541 3.97569e-016 -5 -0 -5.50303 6.11088 -1.33964 13.4652 19.0116 -32.4305 -3.97569e-016 -1.19271e-015 -3.18055e-015 16.0964 -10.3992 68.3317 4.1995 -0.0516153 -96.4122 5.79185 -8.49913 -9.23473 -3.97569e-016 -1.19271e-015 -3.18055e-015 -14.0035 -7.5948 -32.5814 11.9421 -3.43766 50.3112 -0.509078 -3.90767 9.89471 
219.867 84.6387 6.74639 -4.14821 -3.51474 -44.1959 -3.72324 -11.0406 -13.3209 0.998713 37.7897 10.3993 4.75303 -9.92578 0.529362 -2.73329e-015 -5 -0 8.46519 -13.7096 17.7177 -3.62098 29.0614 14.4678 0.216476 1.18232 -0.679688 -1.39131e-016 -5 -1.59635e-015 -5.30641 6.61211 -1.24883 13.3905 17.6731 -30.7502 8.82781e-032 -1.59028e-015 3.18055e-015 14.5078 -12.0452 64.8248 1.51124 -0.042724 -96.5163 5.92482 -8.96687 -9.19406 8.82781e-032 -1.59028e-015 3.18055e-015 -14.2841 -8.67157 -32.2568 12.163 -3.49521 50.6098 -0.260628 -3.80652 9.91455 
220.894 84.4875 7.22202 -4.34497 -2.65228 -50.3512 -3.20429 -11.0541 -17.4263 0.70508 35.4711 5.1387 0.737543 -8.73096 0.00685426 3.97569e-016 -5 -0 8.87477 -15.5858 18.4943 -3.51708 30.3519 18.5555 1.31243 0.283717 -0.802558 6.75832e-016 -5 3.1927e-015 -5.46992 7.30695 -1.2479 13.8863 16.4682 -28.8014 2.38542e-015 -1.59028e-015 -9.54166e-015 13.865 -14.2698 61.3854 -0.68785 -0.0772455 -95.5847 5.43764 -9.73482 -9.2144 2.38542e-015 -1.59028e-015 -9.54166e-015 -14.0695 -9.87812 -32.7353 12.0801 -3.01741 51.6924 -0.599559 -4.04074 9.8867 
